<svg width="20" height="20" viewBox="0 0 20 20" fill="none" xmlns="http://www.w3.org/2000/svg">
<path d="M9.28062 6.72472C9.53021 6.42524 9.97608 6.38442 10.2756 6.63396C10.575 6.88353 10.6147 7.32941 10.3652 7.62891L8.97731 9.29481H10.765C11.0385 9.29499 11.2876 9.45264 11.4038 9.70037C11.5198 9.9482 11.4823 10.2414 11.3073 10.4517L8.95433 13.2757C8.70474 13.5752 8.25887 13.616 7.95939 13.3665C7.6599 13.1169 7.62019 12.671 7.86977 12.3716L9.25764 10.7057H7.46996C7.19639 10.7055 6.94736 10.5478 6.83117 10.3001C6.71508 10.0523 6.75264 9.75904 6.92768 9.54871L9.28062 6.72472Z" fill="#FAB387"/>
<path fill-rule="evenodd" clip-rule="evenodd" d="M13.2351 2.94141C15.4295 2.94141 17.2731 4.4434 17.7939 6.47541C18.8829 6.52933 19.7494 7.42729 19.7494 8.52964V11.4708C19.7494 12.5735 18.8823 13.4705 17.7928 13.5239C17.2916 15.4811 15.5646 16.9474 13.4775 17.0533L13.2351 17.0591H4.99983L4.75741 17.0533C2.35136 16.9312 0.421771 15.0016 0.29969 12.5956L0.293945 12.3532V7.64729C0.293945 5.0483 2.40084 2.94141 4.99983 2.94141H13.2351ZM4.99983 4.70611C3.37546 4.70611 2.05865 6.02292 2.05865 7.64729V12.3532C2.05865 13.9775 3.37546 15.2943 4.99983 15.2943H13.2351C14.8595 15.2943 16.1763 13.9775 16.1763 12.3532V7.64729C16.1763 6.02292 14.8595 4.70611 13.2351 4.70611H4.99983Z" fill="#FAB387"/>
</svg>
